<svg width="524" height="352" viewBox="0 0 524 352" fill="none" xmlns="http://www.w3.org/2000/svg">
<rect x="1.5" y="1.5" width="520.316" height="349" rx="5.5" fill="white" stroke="white"/>
<rect x="1" y="1" width="521.316" height="350" rx="6" fill="url(#paint0_linear)" stroke="white" stroke-opacity="0.04" stroke-width="1.5"/>
<path fill-rule="evenodd" clip-rule="evenodd" d="M28.6311 274.947C28.6311 272.186 30.8697 269.947 33.6311 269.947H52.6312C55.3926 269.947 57.6311 272.186 57.6311 274.947C57.6311 277.709 55.3926 279.947 52.6311 279.947H33.6311C30.8697 279.947 28.6311 277.709 28.6311 274.947Z" fill="#191832" stroke="#29274E"/>
<path fill-rule="evenodd" clip-rule="evenodd" d="M35.6311 274.947C35.6311 273.843 36.5266 272.947 37.6311 272.947H49.6311C50.7357 272.947 51.6311 273.843 51.6311 274.947C51.6311 276.052 50.7357 276.947 49.6311 276.947H37.6311C36.5266 276.947 35.6311 276.052 35.6311 274.947Z" fill="#8786AC"/>
<path fill-rule="evenodd" clip-rule="evenodd" d="M62.6311 274.947C62.6311 272.186 64.8697 269.947 67.6311 269.947H94.6311C97.3926 269.947 99.6311 272.186 99.6311 274.947C99.6311 277.709 97.3926 279.947 94.6311 279.947H67.6311C64.8697 279.947 62.6311 277.709 62.6311 274.947Z" fill="#191832" stroke="#29274E"/>
<path fill-rule="evenodd" clip-rule="evenodd" d="M71.562 274.947C71.562 273.843 72.4574 272.947 73.562 272.947H89.9758C91.0803 272.947 91.9758 273.843 91.9758 274.947C91.9758 276.052 91.0803 276.947 89.9758 276.947H73.562C72.4574 276.947 71.562 276.052 71.562 274.947Z" fill="#8786AC"/>
<path fill-rule="evenodd" clip-rule="evenodd" d="M104.631 274.947C104.631 272.186 106.87 269.947 109.631 269.947H128.631C131.393 269.947 133.631 272.186 133.631 274.947C133.631 277.709 131.393 279.947 128.631 279.947H109.631C106.87 279.947 104.631 277.709 104.631 274.947Z" fill="#191832" stroke="#29274E"/>
<path fill-rule="evenodd" clip-rule="evenodd" d="M111.631 274.947C111.631 273.843 112.527 272.947 113.631 272.947H125.631C126.736 272.947 127.631 273.843 127.631 274.947C127.631 276.052 126.736 276.947 125.631 276.947H113.631C112.527 276.947 111.631 276.052 111.631 274.947Z" fill="#8786AC"/>
<path fill-rule="evenodd" clip-rule="evenodd" d="M138.631 274.947C138.631 272.186 140.87 269.947 143.631 269.947H170.631C173.393 269.947 175.631 272.186 175.631 274.947C175.631 277.709 173.393 279.947 170.631 279.947H143.631C140.87 279.947 138.631 277.709 138.631 274.947Z" fill="#191832" stroke="#29274E"/>
<path fill-rule="evenodd" clip-rule="evenodd" d="M147.562 274.947C147.562 273.843 148.457 272.947 149.562 272.947H165.976C167.08 272.947 167.976 273.843 167.976 274.947C167.976 276.052 167.08 276.947 165.976 276.947H149.562C148.457 276.947 147.562 276.052 147.562 274.947Z" fill="#8786AC"/>
<path fill-rule="evenodd" clip-rule="evenodd" d="M180.631 274.947C180.631 272.186 182.87 269.947 185.631 269.947H204.631C207.393 269.947 209.631 272.186 209.631 274.947C209.631 277.709 207.393 279.947 204.631 279.947H185.631C182.87 279.947 180.631 277.709 180.631 274.947Z" fill="#191832" stroke="#29274E"/>
<path fill-rule="evenodd" clip-rule="evenodd" d="M187.631 274.947C187.631 273.843 188.527 272.947 189.631 272.947H201.631C202.736 272.947 203.631 273.843 203.631 274.947C203.631 276.052 202.736 276.947 201.631 276.947H189.631C188.527 276.947 187.631 276.052 187.631 274.947Z" fill="#8786AC"/>
<path fill-rule="evenodd" clip-rule="evenodd" d="M214.631 274.947C214.631 272.186 216.87 269.947 219.631 269.947H238.631C241.393 269.947 243.631 272.186 243.631 274.947C243.631 277.709 241.393 279.947 238.631 279.947H219.631C216.87 279.947 214.631 277.709 214.631 274.947Z" fill="#191832" stroke="#29274E"/>
<path fill-rule="evenodd" clip-rule="evenodd" d="M221.631 274.947C221.631 273.843 222.527 272.947 223.631 272.947H235.631C236.736 272.947 237.631 273.843 237.631 274.947C237.631 276.052 236.736 276.947 235.631 276.947H223.631C222.527 276.947 221.631 276.052 221.631 274.947Z" fill="#8786AC"/>
<path fill-rule="evenodd" clip-rule="evenodd" d="M28.6311 302.579C28.6311 299.818 30.8697 297.579 33.6311 297.579H66.6311C69.3926 297.579 71.6311 299.818 71.6311 302.579C71.6311 305.34 69.3926 307.579 66.6311 307.579H33.6311C30.8697 307.579 28.6311 305.34 28.6311 302.579Z" fill="#191832" stroke="#29274E"/>
<path fill-rule="evenodd" clip-rule="evenodd" d="M35.6311 302.579C35.6311 301.474 36.5266 300.579 37.6311 300.579H61.6311C62.7357 300.579 63.6311 301.474 63.6311 302.579C63.6311 303.684 62.7357 304.579 61.6311 304.579H37.6312C36.5266 304.579 35.6311 303.684 35.6311 302.579Z" fill="#8786AC"/>
<path fill-rule="evenodd" clip-rule="evenodd" d="M76.6311 302.579C76.6311 299.818 78.8697 297.579 81.6311 297.579H108.631C111.393 297.579 113.631 299.818 113.631 302.579C113.631 305.34 111.393 307.579 108.631 307.579H81.6311C78.8697 307.579 76.6311 305.34 76.6311 302.579Z" fill="#191832" stroke="#29274E"/>
<path fill-rule="evenodd" clip-rule="evenodd" d="M85.562 302.579C85.562 301.474 86.4574 300.579 87.562 300.579H103.976C105.08 300.579 105.976 301.474 105.976 302.579C105.976 303.684 105.08 304.579 103.976 304.579H87.562C86.4574 304.579 85.562 303.684 85.562 302.579Z" fill="#8786AC"/>
<path fill-rule="evenodd" clip-rule="evenodd" d="M118.631 302.579C118.631 299.818 120.87 297.579 123.631 297.579H134.631C137.393 297.579 139.631 299.818 139.631 302.579C139.631 305.34 137.393 307.579 134.631 307.579H123.631C120.87 307.579 118.631 305.34 118.631 302.579Z" fill="#191832" stroke="#29274E"/>
<path fill-rule="evenodd" clip-rule="evenodd" d="M123.7 302.579C123.7 301.474 124.596 300.579 125.7 300.579H133.286C134.391 300.579 135.286 301.474 135.286 302.579C135.286 303.684 134.391 304.579 133.286 304.579H125.7C124.596 304.579 123.7 303.684 123.7 302.579Z" fill="#8786AC"/>
<path fill-rule="evenodd" clip-rule="evenodd" d="M144.631 302.579C144.631 299.818 146.87 297.579 149.631 297.579H160.631C163.393 297.579 165.631 299.818 165.631 302.579C165.631 305.34 163.393 307.579 160.631 307.579H149.631C146.87 307.579 144.631 305.34 144.631 302.579Z" fill="#191832" stroke="#29274E"/>
<path fill-rule="evenodd" clip-rule="evenodd" d="M149.7 302.579C149.7 301.474 150.595 300.579 151.7 300.579H159.286C160.391 300.579 161.286 301.474 161.286 302.579C161.286 303.684 160.391 304.579 159.286 304.579H151.7C150.595 304.579 149.7 303.684 149.7 302.579Z" fill="#8786AC"/>
<path fill-rule="evenodd" clip-rule="evenodd" d="M170.631 302.579C170.631 299.818 172.87 297.579 175.631 297.579H220.631C223.393 297.579 225.631 299.818 225.631 302.579C225.631 305.34 223.393 307.579 220.631 307.579H175.631C172.87 307.579 170.631 305.34 170.631 302.579Z" fill="#191832" stroke="#29274E"/>
<path fill-rule="evenodd" clip-rule="evenodd" d="M183.907 302.579C183.907 301.474 184.802 300.579 185.907 300.579H212.252C213.356 300.579 214.252 301.474 214.252 302.579C214.252 303.684 213.356 304.579 212.252 304.579H185.907C184.802 304.579 183.907 303.684 183.907 302.579Z" fill="#8786AC"/>
<path fill-rule="evenodd" clip-rule="evenodd" d="M230.631 302.579C230.631 299.818 232.87 297.579 235.631 297.579H254.631C257.393 297.579 259.631 299.818 259.631 302.579C259.631 305.34 257.393 307.579 254.631 307.579H235.631C232.87 307.579 230.631 305.34 230.631 302.579Z" fill="#191832" stroke="#29274E"/>
<path fill-rule="evenodd" clip-rule="evenodd" d="M237.631 302.579C237.631 301.474 238.527 300.579 239.631 300.579H251.631C252.736 300.579 253.631 301.474 253.631 302.579C253.631 303.684 252.736 304.579 251.631 304.579H239.631C238.527 304.579 237.631 303.684 237.631 302.579Z" fill="#8786AC"/>
<path fill-rule="evenodd" clip-rule="evenodd" d="M28.5346 108C28.5346 106.896 29.4301 106 30.5346 106H232.85C233.955 106 234.85 106.896 234.85 108V122.421C234.85 123.526 233.955 124.421 232.85 124.421H30.5346C29.4301 124.421 28.5346 123.526 28.5346 122.421V108Z" fill="#272652"/>
<path fill-rule="evenodd" clip-rule="evenodd" d="M28.5338 181.684C28.5338 180.58 29.4292 179.684 30.5338 179.684H256.797C257.901 179.684 258.797 180.58 258.797 181.684V196.105C258.797 197.21 257.901 198.105 256.797 198.105H30.5338C29.4292 198.105 28.5338 197.21 28.5338 196.105V181.684Z" fill="#272652"/>
<path fill-rule="evenodd" clip-rule="evenodd" d="M28.5338 137.631C28.5338 135.422 30.3246 133.632 32.5338 133.632H306.376C308.585 133.632 310.376 135.422 310.376 137.632V157.263C310.376 159.472 308.585 161.263 306.376 161.263H32.5338C30.3246 161.263 28.5338 159.472 28.5338 157.263V137.631Z" fill="#272652"/>
<path fill-rule="evenodd" clip-rule="evenodd" d="M28.5338 211.25C28.5338 209.041 30.3246 207.25 32.5338 207.25H307.034C309.243 207.25 311.034 209.041 311.034 211.25V248.25C311.034 250.459 309.243 252.25 307.034 252.25H32.5338C30.3246 252.25 28.5338 250.459 28.5338 248.25V211.25Z" fill="#272652"/>
<path fill-rule="evenodd" clip-rule="evenodd" d="M371.263 108C371.263 106.895 372.158 106 373.263 106H457.684C458.789 106 459.684 106.895 459.684 108V111.368C459.684 112.473 458.789 113.368 457.684 113.368H373.263C372.158 113.368 371.263 112.473 371.263 111.368V108Z" fill="#8786AC"/>
<path fill-rule="evenodd" clip-rule="evenodd" d="M370.999 120.5C370.999 119.395 371.895 118.5 372.999 118.5H468.999C470.104 118.5 470.999 119.395 470.999 120.5V146.5C470.999 147.605 470.104 148.5 468.999 148.5H372.999C371.895 148.5 370.999 147.605 370.999 146.5V120.5Z" fill="#272652"/>
<path fill-rule="evenodd" clip-rule="evenodd" d="M378.5 123.5C378.5 122.119 379.619 121 381 121H383.5C384.88 121 386 122.119 386 123.5C386 124.881 384.88 126 383.5 126H381C379.619 126 378.5 124.881 378.5 123.5Z" fill="#FFA801" fill-opacity="0.88"/>
<path fill-rule="evenodd" clip-rule="evenodd" d="M378.5 143.5C378.5 142.119 379.619 141 381 141H383.5C384.88 141 386 142.119 386 143.5C386 144.881 384.88 146 383.5 146H381C379.619 146 378.5 144.881 378.5 143.5Z" fill="#FFA801" fill-opacity="0.88"/>
<path fill-rule="evenodd" clip-rule="evenodd" d="M385.999 133.5C385.999 132.119 387.119 131 388.499 131H403.499C404.88 131 405.999 132.119 405.999 133.5C405.999 134.881 404.88 136 403.499 136H388.499C387.119 136 385.999 134.881 385.999 133.5Z" fill="#6F4CFF"/>
<path fill-rule="evenodd" clip-rule="evenodd" d="M126.264 34.3158C126.264 33.2112 127.159 32.3158 128.264 32.3158H279.001C280.105 32.3158 281 33.2112 281 34.3158V48.7368C281 49.8414 280.105 50.7368 279 50.7368H128.264C127.159 50.7368 126.264 49.8414 126.264 48.7368V34.3158Z" fill="#DDEAF3"/>
<path fill-rule="evenodd" clip-rule="evenodd" d="M126.263 63.7894C126.263 62.6849 127.159 61.7894 128.263 61.7894H179.527C180.631 61.7894 181.527 62.6849 181.527 63.7894V67.1579C181.527 68.2624 180.631 69.1578 179.527 69.1578H128.263C127.159 69.1578 126.263 68.2624 126.263 67.1578V63.7894Z" fill="#8786AC"/>
<path fill-rule="evenodd" clip-rule="evenodd" d="M192.579 63.7894C192.579 62.6849 193.474 61.7894 194.579 61.7894H245.842C246.947 61.7894 247.842 62.6849 247.842 63.7894V67.1579C247.842 68.2624 246.947 69.1578 245.842 69.1578H194.579C193.474 69.1578 192.579 68.2624 192.579 67.1578V63.7894Z" fill="#8786AC"/>
<path fill-rule="evenodd" clip-rule="evenodd" d="M258.895 63.7894C258.895 62.6849 259.791 61.7894 260.895 61.7894H312.159C313.263 61.7894 314.158 62.6849 314.158 63.7894V67.1579C314.158 68.2624 313.263 69.1578 312.158 69.1578H260.895C259.791 69.1578 258.895 68.2624 258.895 67.1578V63.7894Z" fill="#8786AC"/>
<path fill-rule="evenodd" clip-rule="evenodd" d="M443.106 26.9473C443.106 25.8428 444.001 24.9473 445.106 24.9473H490.842C491.947 24.9473 492.842 25.8428 492.842 26.9473V41.3684C492.842 42.473 491.947 43.3684 490.842 43.3684H445.106C444.001 43.3684 443.106 42.4729 443.106 41.3684V26.9473Z" fill="#3B3090"/>
<path fill-rule="evenodd" clip-rule="evenodd" d="M28.6314 26.9473C28.6314 25.8428 29.5268 24.9473 30.6314 24.9473H100.316C101.42 24.9473 102.316 25.8428 102.316 26.9473V74.5263C102.316 75.6308 101.42 76.5263 100.316 76.5263H30.6314C29.5268 76.5263 28.6314 75.6308 28.6314 74.5263V26.9473Z" fill="#3B3090"/>
<path fill-rule="evenodd" clip-rule="evenodd" d="M371.263 256.75C371.263 255.646 372.158 254.75 373.263 254.75H457.684C458.789 254.75 459.684 255.646 459.684 256.75V260.119C459.684 261.223 458.789 262.119 457.684 262.119H373.263C372.158 262.119 371.263 261.223 371.263 260.119V256.75Z" fill="#8786AC"/>
<path fill-rule="evenodd" clip-rule="evenodd" d="M371.048 271.25C371.048 269.041 372.839 267.25 375.048 267.25H488.298C490.507 267.25 492.298 269.041 492.298 271.25V313.25C492.298 315.459 490.507 317.25 488.298 317.25H375.048C372.839 317.25 371.048 315.459 371.048 313.25V271.25Z" fill="#272652"/>
<path fill-rule="evenodd" clip-rule="evenodd" d="M377.25 278.5C377.25 277.119 378.369 276 379.75 276H382.25C383.631 276 384.75 277.119 384.75 278.5C384.75 279.881 383.631 281 382.25 281H379.75C378.369 281 377.25 279.881 377.25 278.5Z" fill="#FFA801" fill-opacity="0.88"/>
<path fill-rule="evenodd" clip-rule="evenodd" d="M377.25 307.25C377.25 305.869 378.369 304.75 379.75 304.75H382.25C383.63 304.75 384.75 305.869 384.75 307.25C384.75 308.631 383.63 309.75 382.25 309.75H379.75C378.369 309.75 377.25 308.631 377.25 307.25Z" fill="#FFA801" fill-opacity="0.88"/>
<path fill-rule="evenodd" clip-rule="evenodd" d="M384.749 287.25C384.749 285.869 385.869 284.75 387.249 284.75H402.249C403.63 284.75 404.749 285.869 404.749 287.25C404.749 288.631 403.63 289.75 402.249 289.75H387.249C385.869 289.75 384.749 288.631 384.749 287.25Z" fill="#6F4CFF"/>
<path fill-rule="evenodd" clip-rule="evenodd" d="M392.25 298.5C392.25 297.119 393.369 296 394.75 296H417.25C418.631 296 419.75 297.119 419.75 298.5C419.75 299.881 418.631 301 417.25 301H394.75C393.369 301 392.25 299.881 392.25 298.5Z" fill="#66D8FF"/>
<path fill-rule="evenodd" clip-rule="evenodd" d="M371.263 168C371.263 166.896 372.159 166 373.263 166H457.684C458.789 166 459.684 166.896 459.684 168V171.369C459.684 172.473 458.789 173.369 457.684 173.369H373.263C372.159 173.369 371.263 172.473 371.263 171.369V168Z" fill="#8786AC"/>
<path fill-rule="evenodd" clip-rule="evenodd" d="M371 183.421C371 181.212 372.79 179.421 375 179.421H488.25C490.459 179.421 492.25 181.212 492.25 183.421V234.171C492.25 236.38 490.459 238.171 488.25 238.171H375C372.79 238.171 371 236.38 371 234.171V183.421Z" fill="#272652"/>
<path fill-rule="evenodd" clip-rule="evenodd" d="M377.25 186.921C377.25 185.54 378.369 184.421 379.75 184.421H382.25C383.631 184.421 384.75 185.54 384.75 186.921C384.75 188.302 383.631 189.421 382.25 189.421H379.75C378.369 189.421 377.25 188.302 377.25 186.921Z" fill="#FFA801" fill-opacity="0.88"/>
<path fill-rule="evenodd" clip-rule="evenodd" d="M377.249 231.921C377.249 230.54 378.369 229.421 379.749 229.421H382.249C383.63 229.421 384.749 230.54 384.749 231.921C384.749 233.302 383.63 234.421 382.249 234.421H379.749C378.369 234.421 377.249 233.302 377.249 231.921Z" fill="#FFA801" fill-opacity="0.88"/>
<path fill-rule="evenodd" clip-rule="evenodd" d="M384.749 198.171C384.749 196.79 385.868 195.671 387.249 195.671H402.249C403.63 195.671 404.749 196.79 404.749 198.171C404.749 199.552 403.63 200.671 402.249 200.671H387.249C385.868 200.671 384.749 199.552 384.749 198.171Z" fill="#6F4CFF"/>
<path fill-rule="evenodd" clip-rule="evenodd" d="M392.25 209.421C392.25 208.04 393.369 206.921 394.75 206.921H417.25C418.63 206.921 419.75 208.04 419.75 209.421C419.75 210.802 418.63 211.921 417.25 211.921H394.75C393.369 211.921 392.25 210.802 392.25 209.421Z" fill="#66D8FF"/>
<path fill-rule="evenodd" clip-rule="evenodd" d="M392.25 220.671C392.25 219.29 393.369 218.171 394.75 218.171H417.25C418.63 218.171 419.75 219.29 419.75 220.671C419.75 222.052 418.63 223.171 417.25 223.171H394.75C393.369 223.171 392.25 222.052 392.25 220.671Z" fill="#66D8FF"/>
<defs>
<linearGradient id="paint0_linear" x1="261.658" y1="1" x2="261.658" y2="351" gradientUnits="userSpaceOnUse">
<stop stop-color="#282467"/>
<stop offset="1" stop-color="#0F0E25"/>
</linearGradient>
</defs>
</svg>
