<?xml version="1.0" encoding="UTF-8"?>
<svg width="14px" height="10px" viewBox="0 0 14 10" version="1.1" xmlns="http://www.w3.org/2000/svg" xmlns:xlink="http://www.w3.org/1999/xlink">
    <!-- Generator: Sketch 55.2 (78181) - https://sketchapp.com -->
    <title>Shape</title>
    <desc>Created with Sketch.</desc>
    <g id="Symbols" stroke="none" stroke-width="1" fill="none" fill-rule="evenodd">
        <g id="Global-/-footer-/-not-sigend-in-/-Desktop" transform="translate(-596.000000, -127.000000)" fill="#FFFFFF" fill-rule="nonzero">
            <g id="Group" transform="translate(596.000000, 124.000000)">
                <path d="M6.8989989,7.96305444 C6.79424187,8.00795031 6.67451955,8.00795031 6.5847278,7.96305444 L-1.60405023e-12,4.76048228 L-1.60405023e-12,3.7877384 C-1.60405023e-12,3.59318962 0.164618195,3.42857143 0.359166971,3.42857143 L13.1095944,3.42857143 C13.3041432,3.42857143 13.4687614,3.59318962 13.4687614,3.7877384 L13.4687614,4.77544757 L6.8989989,7.96305444 Z M-1.60405023e-12,6.19621483 L-1.60405023e-12,12.2122616 C-1.60405023e-12,12.4068104 0.164618195,12.5714286 0.359166971,12.5714286 L13.1095944,12.5714286 C13.3041432,12.5714286 13.4687614,12.4068104 13.4687614,12.2122616 L13.4687614,6.19621483 L6.8989989,9.39878699 C6.79424187,9.44368286 6.67451955,9.44368286 6.5847278,9.39878699 L-1.60405023e-12,6.19621483 Z" id="Shape"></path>
            </g>
        </g>
    </g>
</svg>
