<?xml version="1.0" encoding="UTF-8"?>
<svg width="16px" height="16px" viewBox="0 0 16 16" version="1.1" xmlns="http://www.w3.org/2000/svg" xmlns:xlink="http://www.w3.org/1999/xlink">
    <!-- Generator: Sketch 52.4 (67378) - http://www.bohemiancoding.com/sketch -->
    <title>Github</title>
    <desc>Created with Sketch.</desc>
    <g id="Symbols" stroke="none" stroke-width="1" fill="none" fill-rule="evenodd">
        <g id="Menu-/-not-signed-in" transform="translate(-1230.000000, -57.000000)" fill="#FFFFFF" fill-rule="nonzero">
            <path d="M1244.92685,60.9843665 C1244.21147,59.7586433 1243.2411,58.7882366 1242.01549,58.0729274 C1240.78969,57.3575816 1239.45149,57 1237.99993,57 C1236.54855,57 1235.20991,57.3576911 1233.98437,58.0729274 C1232.75864,58.7882001 1231.78831,59.7586433 1231.07293,60.9843665 C1230.35765,62.2100532 1230,63.5485126 1230,64.9997081 C1230,66.7429232 1230.50859,68.3104669 1231.52602,69.7027404 C1232.54335,71.0951234 1233.85758,72.0585982 1235.46862,72.5932741 C1235.65615,72.6280801 1235.79497,72.6035992 1235.88523,72.5204517 C1235.97553,72.4371947 1236.02062,72.3329229 1236.02062,72.208074 C1236.02062,72.1872415 1236.01883,71.9998221 1236.01537,71.645597 C1236.01179,71.2913719 1236.01012,70.9823508 1236.01012,70.7186795 L1235.77052,70.7601255 C1235.61776,70.7881089 1235.42505,70.7999663 1235.19239,70.7966097 C1234.95984,70.7933626 1234.71843,70.7689912 1234.46848,70.7236778 C1234.21841,70.6787657 1233.98583,70.5746033 1233.77053,70.4114095 C1233.55535,70.2482157 1233.40259,70.0346007 1233.31229,69.7708929 L1233.20813,69.5311917 C1233.1387,69.3716098 1233.02939,69.1943331 1232.88006,69.0000182 C1232.73073,68.805521 1232.57972,68.6736671 1232.42697,68.6042376 L1232.35403,68.5520287 C1232.30544,68.5173323 1232.26034,68.4754849 1232.21864,68.4269244 C1232.17698,68.378364 1232.14578,68.329767 1232.12495,68.2810971 C1232.10408,68.2323907 1232.12137,68.1924405 1232.17701,68.1611005 C1232.23265,68.1297606 1232.3332,68.1145467 1232.4791,68.1145467 L1232.68735,68.1456677 C1232.82625,68.1735052 1232.99805,68.2566527 1233.20298,68.395621 C1233.40781,68.5344798 1233.57618,68.7150037 1233.70814,68.9371195 C1233.86795,69.2219151 1234.06047,69.4389232 1234.28627,69.588253 C1234.51189,69.7375828 1234.73937,69.8121201 1234.96849,69.8121201 C1235.19761,69.8121201 1235.3955,69.7947536 1235.56224,69.760203 C1235.72879,69.7254701 1235.88505,69.6732612 1236.03095,69.6038682 C1236.09345,69.1384028 1236.26361,68.7808212 1236.54129,68.5308679 C1236.14551,68.4892759 1235.78968,68.4266326 1235.47362,68.3433391 C1235.15773,68.2599362 1234.83131,68.1245799 1234.49456,67.9369051 C1234.15763,67.7494858 1233.87812,67.5167531 1233.65597,67.2391083 C1233.43378,66.9613176 1233.25144,66.5966216 1233.10918,66.1453485 C1232.96686,65.693893 1232.89568,65.1731175 1232.89568,64.5828761 C1232.89568,63.7424626 1233.17004,63.0272993 1233.71865,62.4369849 C1233.46166,61.8051516 1233.48592,61.0968473 1233.79151,60.3121451 C1233.9929,60.2495747 1234.29156,60.2965299 1234.68734,60.4527188 C1235.0832,60.6089806 1235.37303,60.7428411 1235.55713,60.8538261 C1235.74123,60.9647745 1235.88873,61.0587943 1235.99986,61.1350463 C1236.64582,60.9545589 1237.31242,60.864297 1237.99985,60.864297 C1238.68729,60.864297 1239.35404,60.9545589 1240.00003,61.1350463 L1240.39584,60.885166 C1240.66652,60.7184332 1240.98616,60.5656374 1241.35399,60.426742 C1241.72205,60.2879196 1242.00348,60.2496842 1242.19802,60.3122546 C1242.5104,61.0969932 1242.53823,61.805261 1242.28117,62.4370944 C1242.82974,63.0274088 1243.10421,63.7427545 1243.10421,64.5829856 C1243.10421,65.173227 1243.03278,65.6956442 1242.89067,66.1505657 C1242.74838,66.6055602 1242.56447,66.9698914 1242.33885,67.2443256 C1242.11297,67.5187232 1241.83168,67.7496317 1241.49493,67.9370146 C1241.15811,68.1245434 1240.83158,68.2598998 1240.5157,68.3433026 C1240.19967,68.4267055 1239.84384,68.4893854 1239.44806,68.5310503 C1239.80903,68.8434281 1239.98956,69.336512 1239.98956,70.0100833 L1239.98956,72.2077821 C1239.98956,72.332631 1240.03297,72.4368664 1240.11988,72.5201598 C1240.20667,72.6033073 1240.34375,72.6277882 1240.53127,72.5929458 C1242.14253,72.0583428 1243.45676,71.0948316 1244.47405,69.7024485 C1245.49123,68.310175 1246,66.7426313 1246,64.9994163 C1245.99964,63.5484031 1245.6418,62.2100532 1244.92685,60.9843665 Z" id="Github"></path>
        </g>
    </g>
</svg>
