<svg width="14" height="14" viewBox="0 0 14 14" fill="none" xmlns="http://www.w3.org/2000/svg">
<path d="M8.3055 8.953C8.35508 9.002 8.35508 9.08192 8.3055 9.1315C8.03425 9.401 7.609 9.53225 7.00408 9.53225L6.99942 9.53108L6.99475 9.53225C6.39042 9.53225 5.96458 9.401 5.69333 9.13092C5.64375 9.08192 5.64375 9.002 5.69333 8.953C5.74233 8.904 5.82283 8.904 5.87242 8.953C6.0935 9.17292 6.46042 9.28025 6.99475 9.28025L6.99942 9.28142L7.00408 9.28025C7.53783 9.28025 7.90475 9.17292 8.12642 8.953C8.176 8.904 8.2565 8.904 8.3055 8.953ZM6.29883 7.5425C6.29883 7.24675 6.05733 7.00642 5.761 7.00642C5.46408 7.00642 5.22258 7.24675 5.22258 7.5425C5.22258 7.83767 5.46408 8.078 5.761 8.078C6.05733 8.07858 6.29883 7.83825 6.29883 7.5425ZM14 7C14 10.8657 10.8657 14 7 14C3.13425 14 0 10.8657 0 7C0 3.13425 3.13425 0 7 0C10.8657 0 14 3.13425 14 7ZM11.0833 6.92475C11.0833 6.42833 10.6779 6.02467 10.1792 6.02467C9.93592 6.02467 9.71542 6.12208 9.55267 6.27842C8.93667 5.873 8.10308 5.61517 7.18083 5.58192L7.68542 3.99292L9.05217 4.31317L9.05042 4.333C9.05042 4.739 9.38233 5.06917 9.79008 5.06917C10.1978 5.06917 10.5292 4.739 10.5292 4.333C10.5292 3.927 10.1978 3.59683 9.79008 3.59683C9.47683 3.59683 9.21025 3.79225 9.10233 4.06583L7.62942 3.7205C7.56525 3.70475 7.49933 3.74208 7.4795 3.80508L6.91658 5.57725C5.95058 5.58892 5.07617 5.84908 4.43275 6.26617C4.27117 6.11742 4.05708 6.02408 3.82025 6.02408C3.32208 6.02467 2.91667 6.42833 2.91667 6.92475C2.91667 7.25492 3.09808 7.54075 3.36467 7.69767C3.34717 7.79333 3.3355 7.89075 3.3355 7.98933C3.3355 9.31992 4.97175 10.4026 6.98308 10.4026C8.99442 10.4026 10.6307 9.31992 10.6307 7.98933C10.6307 7.896 10.6207 7.80442 10.605 7.714C10.8885 7.56175 11.0833 7.26717 11.0833 6.92475ZM8.24133 7.007C7.94442 7.007 7.7035 7.24733 7.7035 7.54308C7.7035 7.83825 7.945 8.07858 8.24133 8.07858C8.53767 8.07858 8.77917 7.83825 8.77917 7.54308C8.77917 7.24733 8.53825 7.007 8.24133 7.007Z" fill="white"/>
</svg>
