<?xml version="1.0" encoding="UTF-8"?>
<svg width="14px" height="12px" viewBox="0 0 14 12" version="1.1" xmlns="http://www.w3.org/2000/svg" xmlns:xlink="http://www.w3.org/1999/xlink">
    <!-- Generator: Sketch 55.2 (78181) - https://sketchapp.com -->
    <title>Telegram</title>
    <desc>Created with Sketch.</desc>
    <g id="Symbols" stroke="none" stroke-width="1" fill="none" fill-rule="evenodd">
        <g id="Global-/-footer-/-not-sigend-in-/-Desktop" transform="translate(-690.000000, -126.000000)" fill="#FFFFFF">
            <g id="Group" transform="translate(596.000000, 124.000000)">
                <path d="M104.499036,13.3881656 C104.677921,13.5148294 104.908471,13.5464953 105.114022,13.4687193 C105.319573,13.3903877 105.470681,13.2148362 105.516235,13.0020633 C105.999002,10.733226 107.170087,4.99057893 107.609521,2.92673702 C107.642854,2.771185 107.587299,2.60952201 107.46508,2.50563549 C107.34286,2.40174897 107.17342,2.37174965 107.022312,2.42785948 C104.692921,3.29006208 97.5191951,5.98166749 94.5870396,7.06664279 C94.4009327,7.13553011 94.2798243,7.31441493 94.2859353,7.51052158 C94.2926018,7.70718377 94.424821,7.87773544 94.6153723,7.93495636 C95.9303423,8.32828074 97.6564142,8.87549051 97.6564142,8.87549051 C97.6564142,8.87549051 98.4630625,11.3115462 98.8836084,12.5504069 C98.936385,12.7059589 99.0580489,12.8281783 99.2186008,12.8703996 C99.3785972,12.9120653 99.5497044,12.8681774 99.6691461,12.7554022 C100.344686,12.1176389 101.389107,11.1315503 101.389107,11.1315503 C101.389107,11.1315503 103.373506,12.5865172 104.499036,13.3881656 Z M98.3825087,8.56771974 L99.3152653,11.6443164 L99.5224828,9.69602739 C99.5224828,9.69602739 103.12629,6.44554582 105.180687,4.59281021 C105.240686,4.538367 105.249019,4.44725796 105.19902,4.38337053 C105.149577,4.3194831 105.058468,4.30448344 104.990136,4.34781578 C102.609079,5.86833673 98.3825087,8.56771974 98.3825087,8.56771974 Z" id="Telegram"></path>
            </g>
        </g>
    </g>
</svg>
