<svg width="522" height="350" viewBox="0 0 522 350" fill="none" xmlns="http://www.w3.org/2000/svg">
<rect x="0.5" y="0.5" width="520.316" height="349" rx="5.5" fill="white" stroke="white"/>
<rect x="0.0321045" width="521.316" height="350" rx="6" fill="url(#paint0_linear)"/>
<rect x="0.532104" y="0.5" width="520.316" height="349" rx="5.5" stroke="white" stroke-opacity="0.04"/>
<path fill-rule="evenodd" clip-rule="evenodd" d="M47.894 35.1579C47.894 34.0533 48.7895 33.1579 49.894 33.1579H200.631C201.735 33.1579 202.631 34.0533 202.631 35.1579V49.579C202.631 50.6835 201.735 51.579 200.631 51.579H49.894C48.7895 51.579 47.894 50.6835 47.894 49.579V35.1579Z" fill="#DDEAF3"/>
<path fill-rule="evenodd" clip-rule="evenodd" d="M47.8936 62.7895C47.8936 61.6849 48.789 60.7895 49.8936 60.7895H263.262C264.367 60.7895 265.262 61.6849 265.262 62.7895V66.1579C265.262 67.2625 264.367 68.1579 263.262 68.1579H49.8936C48.789 68.1579 47.8936 67.2625 47.8936 66.1579V62.7895Z" fill="white" fill-opacity="0.08"/>
<path fill-rule="evenodd" clip-rule="evenodd" d="M375.79 25.9473C375.79 24.8427 376.686 23.9473 377.79 23.9473H469.58C470.684 23.9473 471.58 24.8427 471.58 25.9473V40.3683C471.58 41.4729 470.684 42.3683 469.58 42.3683H377.79C376.686 42.3683 375.79 41.4729 375.79 40.3683V25.9473Z" fill="#5E44DD"/>
<rect x="47.53" y="84.7368" width="98.3497" height="106.842" rx="4" fill="#211B52"/>
<rect x="78.8766" y="106.842" width="31.25" height="31.25" rx="15.625" fill="white"/>
<path fill-rule="evenodd" clip-rule="evenodd" d="M69.1663 165.947C69.1663 164.843 70.0618 163.947 71.1663 163.947H120.275C121.38 163.947 122.275 164.843 122.275 165.947V169.316C122.275 170.42 121.38 171.316 120.275 171.316H71.1663C70.0617 171.316 69.1663 170.42 69.1663 169.316V165.947Z" fill="white" fill-opacity="0.32"/>
<rect x="156.932" y="84.7367" width="98.3497" height="106.842" rx="4" fill="#211B52"/>
<rect x="188.28" y="106.842" width="31.25" height="31.25" rx="15.625" fill="white"/>
<path fill-rule="evenodd" clip-rule="evenodd" d="M178.57 165.947C178.57 164.843 179.465 163.947 180.57 163.947H229.679C230.783 163.947 231.679 164.843 231.679 165.947V169.316C231.679 170.42 230.783 171.316 229.679 171.316H180.57C179.465 171.316 178.57 170.42 178.57 169.316V165.947Z" fill="white" fill-opacity="0.32"/>
<rect x="266.334" y="84.7367" width="98.3497" height="106.842" rx="4" fill="#211B52"/>
<rect x="297.682" y="106.842" width="31.25" height="31.25" rx="15.625" fill="white"/>
<path fill-rule="evenodd" clip-rule="evenodd" d="M287.971 165.947C287.971 164.843 288.867 163.947 289.971 163.947H339.08C340.185 163.947 341.08 164.843 341.08 165.947V169.316C341.08 170.42 340.185 171.316 339.08 171.316H289.971C288.867 171.316 287.971 170.42 287.971 169.316V165.947Z" fill="white" fill-opacity="0.32"/>
<rect x="375.736" y="84.7367" width="98.3497" height="106.842" rx="4" fill="#211B52"/>
<rect x="407.084" y="106.842" width="31.25" height="31.25" rx="15.625" fill="white"/>
<path fill-rule="evenodd" clip-rule="evenodd" d="M397.372 165.947C397.372 164.843 398.268 163.947 399.372 163.947H448.481C449.586 163.947 450.481 164.843 450.481 165.947V169.316C450.481 170.42 449.586 171.316 448.481 171.316H399.372C398.268 171.316 397.372 170.42 397.372 169.316V165.947Z" fill="white" fill-opacity="0.32"/>
<rect x="375.737" y="206.316" width="98.3497" height="106.842" rx="4" fill="#211B52"/>
<rect x="407.084" y="228.421" width="31.25" height="31.25" rx="15.625" fill="white"/>
<path fill-rule="evenodd" clip-rule="evenodd" d="M397.374 287.526C397.374 286.422 398.269 285.526 399.374 285.526H448.483C449.587 285.526 450.483 286.422 450.483 287.526V290.895C450.483 291.999 449.587 292.895 448.483 292.895H399.374C398.269 292.895 397.374 291.999 397.374 290.895V287.526Z" fill="white" fill-opacity="0.32"/>
<rect x="266.335" y="206.316" width="98.3497" height="106.842" rx="4" fill="#211B52"/>
<rect x="297.682" y="228.421" width="31.25" height="31.25" rx="15.625" fill="white"/>
<path fill-rule="evenodd" clip-rule="evenodd" d="M287.972 287.526C287.972 286.422 288.868 285.526 289.972 285.526H339.081C340.186 285.526 341.081 286.422 341.081 287.526V290.895C341.081 291.999 340.186 292.895 339.081 292.895H289.972C288.868 292.895 287.972 291.999 287.972 290.895V287.526Z" fill="white" fill-opacity="0.32"/>
<rect x="47.5298" y="206.316" width="98.3497" height="106.842" rx="4" fill="#211B52"/>
<rect x="78.8773" y="228.421" width="31.25" height="31.25" rx="15.625" fill="white"/>
<path fill-rule="evenodd" clip-rule="evenodd" d="M69.1671 287.526C69.1671 286.422 70.0625 285.526 71.1671 285.526H120.276C121.38 285.526 122.276 286.422 122.276 287.526V290.895C122.276 291.999 121.38 292.895 120.276 292.895H71.167C70.0625 292.895 69.1671 291.999 69.1671 290.895V287.526Z" fill="white" fill-opacity="0.32"/>
<rect x="156.932" y="206.316" width="98.3497" height="106.842" rx="4" fill="#211B52"/>
<rect x="188.28" y="228.421" width="31.25" height="31.25" rx="15.625" fill="white"/>
<path fill-rule="evenodd" clip-rule="evenodd" d="M178.569 287.526C178.569 286.422 179.465 285.526 180.569 285.526H229.678C230.783 285.526 231.678 286.422 231.678 287.526V290.895C231.678 291.999 230.783 292.895 229.678 292.895H180.569C179.465 292.895 178.569 291.999 178.569 290.895V287.526Z" fill="white" fill-opacity="0.32"/>
<defs>
<linearGradient id="paint0_linear" x1="260.69" y1="0" x2="260.69" y2="350" gradientUnits="userSpaceOnUse">
<stop stop-color="#4433A3"/>
<stop offset="1" stop-color="#100F2A"/>
</linearGradient>
</defs>
</svg>
